<?xml version="1.0" encoding="UTF-8"?>
<!DOCTYPE svg PUBLIC "-//W3C//DTD SVG 1.1//EN" "http://www.w3.org/Graphics/SVG/1.1/DTD/svg11.dtd">
<svg xmlns="http://www.w3.org/2000/svg" xml:space="preserve" width="256px" height="256px" version="1.1" style="shape-rendering:geometricPrecision; text-rendering:geometricPrecision; image-rendering:optimizeQuality; fill-rule:evenodd; clip-rule:evenodd"
viewBox="0 0 256 256"
 xmlns:xlink="http://www.w3.org/1999/xlink"
 xmlns:xodm="http://www.corel.com/coreldraw/odm/2003">
 <defs>
  <style type="text/css">
   <![CDATA[
    .fil1 {fill:#026DAF;fill-rule:nonzero}
    .fil0 {fill:#5AAC48;fill-rule:nonzero}
   ]]>
  </style>
 </defs>
 <g id="Layer_x0020_1">
  <metadata id="CorelCorpID_0Corel-Layer"/>
  <g id="_2935810312992">
   <g>
    <g>
     <path class="fil0" d="M72.1 31.11c0,-13.67 11.08,-24.75 24.75,-24.75 13.66,0 24.74,11.08 24.74,24.75 0,13.66 -11.08,24.74 -24.74,24.74 -13.67,0 -24.75,-11.08 -24.75,-24.74z"/>
    </g>
    <g>
     <path class="fil0" d="M20.06 60.59c-0.76,-0.75 -0.04,-2.03 1.01,-1.79 7.09,1.6 13.95,3.06 20.77,4.26 7.87,1.41 15.63,2.49 23.24,3.08 15.19,1.2 29.87,0.36 43.06,-3.78 12.94,-4.03 25.13,-12.1 36.59,-22.16 5.72,-5.05 11.34,-10.53 16.83,-16.37 4.78,-5.03 9.46,-10.28 14.28,-15.74 0.7,-0.8 2.04,-0.2 1.87,0.86 -0.48,3.08 -1.2,6.11 -2.03,9.11 -1.14,4.12 -2.58,8.15 -4.21,12.12 -1.67,3.96 -3.54,7.85 -5.68,11.62 -2.11,3.79 -4.45,7.48 -7.06,11.02 -5.2,7.1 -11.4,13.69 -18.66,19.32 -7.26,5.59 -15.62,10.26 -24.77,13.06 -2.29,0.76 -4.55,1.27 -6.82,1.83 -1.14,0.25 -2.29,0.43 -3.43,0.64 -1.15,0.22 -2.29,0.42 -3.44,0.54 -4.6,0.65 -9.2,0.81 -13.76,0.73 -9.12,-0.23 -18.01,-1.79 -26.42,-4.37 -4.21,-1.28 -8.31,-2.82 -12.27,-4.62 -3.96,-1.75 -7.8,-3.76 -11.49,-5.95 -3.69,-2.22 -7.24,-4.61 -10.61,-7.26 -2.44,-1.92 -4.81,-3.94 -7,-6.15z"/>
    </g>
   </g>
   <g>
    <g>
     <path class="fil0" d="M227.41 71.45c13.67,0.05 24.71,11.17 24.65,24.84 -0.05,13.67 -11.17,24.7 -24.83,24.65 -13.67,-0.05 -24.71,-11.17 -24.66,-24.83 0.05,-13.67 11.17,-24.71 24.84,-24.66z"/>
    </g>
    <g>
     <path class="fil0" d="M198.12 19.3c0.76,-0.76 2.03,-0.03 1.79,1.01 -1.63,7.09 -3.11,13.95 -4.34,20.76 -1.44,7.87 -2.55,15.62 -3.17,23.23 -1.26,15.18 -0.47,29.87 3.62,43.08 3.98,12.95 12,25.16 22.03,36.66 5.02,5.74 10.48,11.38 16.3,16.9 5.01,4.8 10.24,9.49 15.69,14.33 0.8,0.71 0.19,2.04 -0.86,1.88 -3.08,-0.5 -6.11,-1.23 -9.11,-2.07 -4.12,-1.16 -8.14,-2.62 -12.11,-4.26 -3.95,-1.68 -7.83,-3.57 -11.59,-5.72 -3.79,-2.12 -7.47,-4.48 -11,-7.11 -7.08,-5.22 -13.64,-11.44 -19.24,-18.72 -5.57,-7.28 -10.21,-15.66 -12.98,-24.82 -0.75,-2.3 -1.25,-4.56 -1.79,-6.83 -0.25,-1.14 -0.43,-2.29 -0.64,-3.43 -0.21,-1.15 -0.41,-2.29 -0.52,-3.45 -0.63,-4.59 -0.78,-9.2 -0.68,-13.76 0.26,-9.11 1.85,-18 4.47,-26.4 1.29,-4.21 2.85,-8.3 4.66,-12.25 1.77,-3.96 3.79,-7.78 5.99,-11.47 2.24,-3.68 4.65,-7.23 7.31,-10.58 1.92,-2.43 3.95,-4.8 6.17,-6.98z"/>
    </g>
   </g>
   <g>
    <g>
     <path class="fil0" d="M185.49 226.3c0.14,13.67 -10.82,24.86 -24.48,25.01 -13.67,0.14 -24.87,-10.81 -25.01,-24.48 -0.15,-13.67 10.81,-24.86 24.48,-25.01 13.66,-0.15 24.86,10.81 25.01,24.48z"/>
    </g>
    <g>
     <path class="fil0" d="M237.21 196.25c0.77,0.75 0.06,2.04 -0.99,1.81 -7.11,-1.52 -13.98,-2.91 -20.81,-4.04 -7.89,-1.33 -15.66,-2.32 -23.27,-2.83 -15.21,-1.04 -29.88,-0.04 -43.03,4.24 -12.89,4.17 -24.99,12.37 -36.34,22.55 -5.67,5.11 -11.23,10.65 -16.66,16.55 -4.73,5.08 -9.35,10.38 -14.11,15.9 -0.69,0.81 -2.04,0.21 -1.88,-0.84 0.44,-3.09 1.14,-6.13 1.93,-9.14 1.1,-4.13 2.5,-8.17 4.09,-12.17 1.62,-3.97 3.45,-7.88 5.55,-11.67 2.07,-3.82 4.37,-7.53 6.94,-11.1 5.12,-7.16 11.25,-13.81 18.45,-19.51 7.2,-5.67 15.51,-10.43 24.63,-13.33 2.29,-0.79 4.54,-1.32 6.8,-1.9 1.14,-0.26 2.29,-0.45 3.43,-0.68 1.14,-0.23 2.28,-0.44 3.43,-0.57 4.59,-0.7 9.19,-0.91 13.75,-0.88 9.12,0.13 18.03,1.59 26.47,4.09 4.22,1.23 8.33,2.72 12.31,4.48 3.99,1.71 7.84,3.68 11.56,5.83 3.71,2.18 7.29,4.53 10.68,7.15 2.46,1.89 4.85,3.88 7.07,6.06z"/>
    </g>
   </g>
   <g>
    <g>
     <path class="fil0" d="M31.13 184.84c-13.66,0.1 -24.82,-10.9 -24.92,-24.57 -0.09,-13.67 10.91,-24.82 24.58,-24.92 13.66,-0.09 24.82,10.91 24.92,24.58 0.09,13.66 -10.91,24.82 -24.58,24.91z"/>
    </g>
    <g>
     <path class="fil0" d="M60.99 236.68c-0.76,0.76 -2.04,0.05 -1.81,-0.99 1.55,-7.11 2.96,-13.98 4.12,-20.8 1.36,-7.89 2.38,-15.65 2.91,-23.27 1.1,-15.19 0.16,-29.87 -4.08,-43.03 -4.11,-12.91 -12.26,-25.04 -22.41,-36.43 -5.09,-5.69 -10.61,-11.27 -16.49,-16.72 -5.06,-4.75 -10.34,-9.39 -15.84,-14.17 -0.81,-0.7 -0.21,-2.04 0.85,-1.88 3.08,0.46 6.12,1.16 9.12,1.97 4.13,1.11 8.17,2.53 12.16,4.13 3.96,1.63 7.87,3.48 11.65,5.59 3.81,2.09 7.52,4.4 11.08,6.99 7.13,5.15 13.76,11.3 19.44,18.52 5.64,7.22 10.37,15.54 13.24,24.68 0.77,2.29 1.3,4.54 1.87,6.81 0.26,1.14 0.45,2.28 0.67,3.43 0.22,1.14 0.43,2.28 0.56,3.43 0.68,4.59 0.87,9.2 0.82,13.75 -0.16,9.12 -1.65,18.02 -4.18,26.45 -1.25,4.22 -2.76,8.33 -4.53,12.3 -1.73,3.98 -3.71,7.83 -5.87,11.54 -2.2,3.7 -4.57,7.27 -7.19,10.65 -1.9,2.46 -3.9,4.84 -6.09,7.05z"/>
    </g>
   </g>
   <g>
    <polygon class="fil1" points="128.99,95.24 127.1,121.05 109.6,101.9 100.06,114.17 121.88,127.3 96,132.12 100.67,145.64 124.1,134.11 114.43,158.19 130.66,161 131.97,135.79 148.39,156.5 158.97,144.92 137.79,130.4 162,125.6 156.96,111.35 134.72,122.28 143.2,98.19 "/>
   </g>
  </g>
 </g>
</svg>
